<svg width="200" height="200" viewBox="0 0 200 200" fill="none" xmlns="http://www.w3.org/2000/svg">
<g clip-path="url(#clip0_0_1)">
<path d="M100 -0.189056L7 32.9753L21.1847 155.943L100 199.596L178.815 155.943L193 32.9753L100 -0.189056Z" fill="#DD0031"/>
<path d="M100 -0.189056V21.9871V21.8872V123.078V199.596L178.815 155.943L193 32.9753L100 -0.189056Z" fill="#C3002F"/>
</g>
<g opacity="0.5">
<path d="M100.465 171.93C139.934 171.93 171.93 139.934 171.93 100.465C171.93 60.996 139.934 29 100.465 29C60.996 29 29 60.996 29 100.465C29 139.934 60.996 171.93 100.465 171.93Z" stroke="white" stroke-width="6"/>
<path fill-rule="evenodd" clip-rule="evenodd" d="M51.1311 51.1311H149.799V149.799H51.1311V51.1311Z" stroke="white" stroke-width="6"/>
<path fill-rule="evenodd" clip-rule="evenodd" d="M148.374 51.1311H52.5558L100.465 146.95L148.374 51.1311Z" stroke="white" stroke-width="6"/>
</g>
<g opacity="0.5">
<path d="M100.465 171.93C139.934 171.93 171.93 139.934 171.93 100.465C171.93 60.996 139.934 29 100.465 29C60.996 29 29 60.996 29 100.465C29 139.934 60.996 171.93 100.465 171.93Z" stroke="white" stroke-width="6"/>
<path fill-rule="evenodd" clip-rule="evenodd" d="M51.1311 51.1311H149.799V149.799H51.1311V51.1311Z" stroke="white" stroke-width="6"/>
<path fill-rule="evenodd" clip-rule="evenodd" d="M148.374 51.1311H52.5558L100.465 146.95L148.374 51.1311Z" stroke="white" stroke-width="6"/>
</g>
<g opacity="0.5">
<path d="M100.465 171.93C139.934 171.93 171.93 139.934 171.93 100.465C171.93 60.996 139.934 29 100.465 29C60.996 29 29 60.996 29 100.465C29 139.934 60.996 171.93 100.465 171.93Z" stroke="white" stroke-width="6"/>
<path fill-rule="evenodd" clip-rule="evenodd" d="M51.1311 51.1311H149.799V149.799H51.1311V51.1311Z" stroke="white" stroke-width="6"/>
<path fill-rule="evenodd" clip-rule="evenodd" d="M148.374 51.1311H52.5558L100.465 146.95L148.374 51.1311Z" stroke="white" stroke-width="6"/>
</g>
<g opacity="0.5">
<path d="M100.465 171.93C139.934 171.93 171.93 139.934 171.93 100.465C171.93 60.996 139.934 29 100.465 29C60.996 29 29 60.996 29 100.465C29 139.934 60.996 171.93 100.465 171.93Z" stroke="white" stroke-width="6"/>
<path fill-rule="evenodd" clip-rule="evenodd" d="M51.1311 51.1311H149.799V149.799H51.1311V51.1311Z" stroke="white" stroke-width="6"/>
<path fill-rule="evenodd" clip-rule="evenodd" d="M148.374 51.1311H52.5558L100.465 146.95L148.374 51.1311Z" stroke="white" stroke-width="6"/>
</g>
<defs>
<clipPath id="clip0_0_1">
<rect width="200" height="200" fill="white"/>
</clipPath>
</defs>
</svg>
